<svg xmlns="http://www.w3.org/2000/svg" xmlns:xlink="http://www.w3.org/1999/xlink" id="Layer_2" data-name="Layer 2" viewBox="0 0 491.95 76.31"><defs><style>      .cls-1 {        stroke-miterlimit: 4.98;        stroke-width: 9.18px;      }      .cls-1, .cls-2, .cls-3, .cls-4 {        fill: none;      }      .cls-1, .cls-3, .cls-4 {        stroke: #fff;      }      .cls-5 {        fill: red;      }      .cls-6 {        clip-path: url(#clippath-1);      }      .cls-3 {        stroke-miterlimit: 4;        stroke-width: 4.18px;      }      .cls-4 {        stroke-width: 10.35px;      }      .cls-7 {        fill: #2b2b2b;      }      .cls-8 {        fill: #7ed957;      }      .cls-9 {        clip-path: url(#clippath);      }    </style><clipPath id="clippath"><rect class="cls-2" x="41.32" y="12.62" width="40" height="39.95"></rect></clipPath><clipPath id="clippath-1"><rect class="cls-2" x="39.6" y="16.83" width="43" height="37"></rect></clipPath></defs><g id="Layer_1-2" data-name="Layer 1"><path class="cls-4" d="M20.73,5.66c-.1-.05.06-.02.48.09.43.1.64.15.64.15h.31c.05,0,.08-.01.08-.04s.02-.04.07-.04h.04s.04.03.04.07c.05,0,.22.05.53.15.05.05.1.08.15.08.05,0,.1.02.15.07.1.09.14.21.11.35-.03.12-.04.23-.04.33v3.84h.15c0,.65-.02,1.29-.04,1.91-.03.62-.04,1.27-.04,1.93,0,.2-.03.34-.07.44-.1.26-.27.41-.52.46h-.07c-.16,0-.34-.05-.54-.15h-.22c-.11,0-.22.01-.35.04-.12.03-.26.04-.41.04-.26.05-.5.1-.73.15-.22.05-.45.12-.7.22-.16.09-.31.2-.46.31-.15.09-.29.22-.44.36-.31.15-.58.35-.83.61l-.53.68c-.05.1-.13.21-.24.33-.1.12-.17.26-.22.42-.05.09-.06.21-.04.33.03.12.02.24-.04.35-.05.2-.12.39-.22.57-.1.17-.15.36-.15.55l-.07.3c0,.21.02.41.07.6.05.2.1.4.15.6l.46,1.05c.1.15.17.29.22.43.05.12.1.23.15.33.09.15.19.31.29.49.11.17.21.36.31.57.15.15.28.3.41.47.14.17.25.36.35.57.09.15.21.3.33.46.12.15.21.29.26.44l.75.9c.16.21.3.39.42.54.12.15.27.32.42.53.1.19.22.36.37.52.15.15.27.3.36.46.16.19.31.39.46.57.15.17.3.35.46.55.1.21.19.4.29.57.1.17.22.34.37.49l.6.9c.1.2.2.39.3.57.11.17.23.33.39.47.09.2.22.36.36.5.16.12.29.26.39.4.1.15.18.3.26.46.08.15.18.3.28.44.19.31.32.53.36.68.26.41.46.81.6,1.21.2.3.32.52.37.68l.46,1.51c.1.2.16.42.18.68.03.24.06.49.11.74.06.11.07.22.04.35-.03.12-.01.23.05.33,0,.1.02.2.04.31.03.1.04.2.04.29v1.36c0,.15-.02.3-.07.44l.07.07c-.05.16-.07.31-.07.46s-.03.3-.09.46v.57c0,.17-.03.35-.08.55l-.22,1.12c-.05.35-.14.7-.28,1.03-.12.32-.23.66-.33,1.01-.1.31-.25.6-.46.89-.2.27-.37.55-.52.84-.1.21-.18.42-.26.64-.07.22-.19.44-.35.65-.09.19-.21.39-.33.57-.12.17-.27.33-.42.48-.2.3-.34.51-.44.6-.21.2-.4.39-.57.57-.17.17-.36.33-.57.48-.3.31-.52.51-.68.6-.15.15-.31.29-.49.43-.17.12-.33.23-.48.33l-.6.46c-.15.1-.31.21-.49.33-.17.12-.36.23-.55.33-.2.16-.45.28-.76.35-.29.07-.59.16-.9.26-.35.16-.68.31-.99.46-.3.15-.62.27-.97.36-.24.05-.49.1-.76.15-.24.06-.49.11-.73.16h-.09c-.15,0-.27-.02-.37-.07h-.46v.15h-.07l-1.73-.07s-.11.02-.18.04c-.07.03-.14.04-.18.04h-.17c-.15-.05-.31-.1-.49-.16-.17-.05-.35-.1-.55-.15-.1-.05-.24-.07-.42-.07-.17,0-.35-.02-.55-.07-.21-.05-.4-.1-.57-.15s-.36-.1-.57-.15c-.09-.05-.19-.1-.29-.15-.1-.05-.2-.1-.3-.17-.26-.15-.39-.34-.39-.59-.05-.11-.09-.23-.15-.35-.05-.12-.07-.23-.07-.33v-7.07c0-.1.03-.2.07-.3.05-.11.07-.19.07-.24,0-.24.05-.42.15-.53.09-.05.24-.06.44-.04.21.03.36.04.46.04h.83c.11,0,.23.02.35.06.12.02.21.04.26.04.1,0,.2.02.3.07.11.05.21.07.31.07h.22c.05,0,.11-.03.18-.07.09-.05.16-.07.2-.07.34,0,.62-.03.83-.09.24,0,.48-.01.7-.04.23-.03.45-.06.66-.11.44-.15.94-.35,1.49-.61.21-.09.39-.2.53-.33.15-.12.3-.21.46-.26.34-.31.67-.64.97-.99.1-.15.2-.29.29-.44.11-.15.19-.28.24-.39.05-.15.1-.28.15-.4.05-.12.1-.24.15-.35.05-.1.09-.18.15-.26.05-.07.07-.16.07-.26v-.15c0-.16-.01-.3-.04-.42-.03-.12-.04-.26-.04-.41,0-.45-.07-.91-.22-1.36-.05-.26-.13-.51-.24-.75-.1-.26-.22-.48-.37-.68-.15-.26-.32-.52-.53-.79-.2-.28-.39-.52-.59-.71-.11-.24-.24-.44-.39-.59-.15-.16-.29-.34-.44-.53-.21-.31-.4-.61-.57-.9-.17-.31-.36-.61-.57-.92l-1.12-1.34c-.1-.16-.2-.32-.31-.49-.1-.17-.2-.34-.3-.49-.15-.2-.29-.4-.42-.59-.12-.21-.26-.41-.41-.61-.15-.21-.3-.39-.46-.53-.15-.15-.27-.32-.36-.53-.15-.24-.29-.49-.42-.73-.12-.26-.26-.48-.41-.68-.15-.21-.31-.39-.49-.53-.17-.15-.31-.32-.41-.53-.16-.24-.29-.47-.39-.66-.1-.21-.19-.39-.29-.54-.1-.26-.2-.48-.31-.68-.1-.21-.2-.41-.3-.6-.05-.1-.08-.22-.11-.37-.03-.16-.06-.31-.11-.46-.05-.2-.14-.39-.28-.59-.12-.21-.23-.41-.33-.6-.05-.16-.06-.33-.04-.5.02-.17.01-.33-.04-.49l-.22-1.19c0-.1-.03-.2-.09-.29-.05-.11-.08-.19-.08-.24,0-.15.02-.3.04-.44.03-.16.04-.34.04-.53-.05-.15-.08-.42-.08-.83.05,0,.06-.01.04-.04-.02-.03-.04-.04-.04-.04.05-.16.08-.31.08-.46s.03-.27.09-.37c0-.21-.02-.4-.05-.57-.03-.17-.01-.36.05-.57.05-.2.11-.37.18-.52.08-.16.14-.34.19-.53l.22-.76c.11-.26.18-.51.2-.76.03-.26.08-.48.18-.68.15-.41.35-.83.6-1.29.1-.1.16-.21.19-.33.02-.12.06-.21.11-.26.1-.26.22-.51.36-.76.16-.26.31-.48.46-.68l.82-1.07c.1-.09.2-.19.3-.29.11-.1.21-.2.31-.29l.22-.15c0-.06-.01-.1-.04-.12-.03-.03-.04-.04-.04-.04.05-.1.14-.17.26-.22.14-.05.26-.1.35-.15l-.07-.15c.2-.21.39-.4.59-.57.21-.17.41-.34.6-.5.26-.19.52-.34.79-.44.28-.1.55-.23.79-.39.5-.24,1.05-.47,1.65-.68.31-.1.61-.21.9-.33.31-.12.61-.21.92-.26.2-.05.38-.07.55-.07h1.32c.26,0,.51-.03.76-.07.26-.06.51-.09.75-.09ZM61.29,59.24c.2,0,.38.03.55.07.18.05.37.05.57,0,.1,0,.22.02.37.04.16.03.29.02.39-.04.09,0,.21-.02.33-.07.14-.05.25-.07.35-.07l1.14-.24c.24-.05.49-.07.73-.07s.51-.02.76-.07c.35-.1.71-.2,1.06-.29.35-.1.7-.2,1.05-.31.45-.1.9-.22,1.32-.37s.84-.3,1.23-.46c.16-.1.33-.15.5-.15s.33-.03.49-.07c.19-.1.39-.2.59-.3.21-.11.41-.19.6-.24.16-.09.29-.21.39-.33.1-.12.22-.24.37-.35.21,0,.36-.03.46-.07.19-.1.36-.22.52-.37.16-.15.33-.28.53-.39.26-.15.52-.29.79-.44.28-.15.54-.33.79-.54l1.14-.9c.1-.09.21-.18.33-.26.12-.07.23-.14.33-.2.06-.05.11-.12.17-.22.05-.1.09-.17.15-.22.1-.1.22-.17.36-.22.16-.06.27-.14.31-.24.2-.15.37-.32.52-.51.16-.21.34-.41.53-.61.1-.09.2-.17.3-.22.11-.06.19-.11.24-.17.19-.29.36-.52.51-.68.11-.15.21-.31.31-.48.1-.17.2-.34.3-.49.1-.2.22-.35.36-.48.16-.14.31-.3.46-.49.15-.24.28-.49.41-.73.14-.26.28-.49.42-.7.16-.24.31-.49.46-.73.15-.26.3-.49.44-.7.21-.34.38-.68.49-1.01.12-.33.27-.65.42-.94l.44-.97c.05-.16.08-.3.11-.42.03-.12.06-.26.11-.41.11-.26.21-.51.31-.75.1-.26.17-.51.22-.76.09-.26.17-.53.22-.83.05-.3.1-.61.17-.92.05-.2.09-.37.15-.52.05-.16.1-.31.15-.46v-.83c.1-.29.15-.52.15-.68v-.52c.05-.11.09-.21.11-.31.03-.1.04-.19.04-.29.05-.15.08-.31.08-.48v-.49c0-.21-.03-.39-.08-.53-.05-.15-.07-.3-.07-.46,0-.15.04-.28.11-.4.08-.12.09-.24.04-.35,0-.2-.02-.38-.04-.55-.03-.18-.04-.35-.04-.49v-.07c0-.1-.01-.22-.04-.37-.02-.16-.04-.29-.04-.39s-.05-.25-.15-.46c0-.2-.01-.38-.04-.55-.03-.18-.04-.35-.04-.49-.05-.2-.07-.38-.07-.55,0-.18-.03-.38-.07-.57-.05-.26-.09-.52-.11-.79-.03-.28-.09-.55-.2-.79-.05-.26-.12-.52-.22-.79-.1-.28-.2-.58-.3-.89-.11-.24-.21-.51-.31-.81-.1-.31-.19-.59-.29-.84-.05-.24-.13-.46-.24-.66-.1-.21-.2-.41-.3-.6-.05-.21-.13-.4-.26-.57-.12-.17-.24-.36-.35-.57-.05-.2-.12-.38-.22-.55-.1-.18-.2-.35-.3-.49l-.68-.9c-.1-.26-.23-.46-.39-.6-.15-.15-.3-.33-.44-.54l-.68-.9c-.1-.1-.17-.22-.22-.37-.05-.16-.12-.29-.24-.39-.19-.29-.34-.49-.44-.6-.1-.1-.21-.2-.35-.3-.12-.1-.23-.17-.33-.22-.05-.1-.08-.18-.11-.26-.03-.09-.08-.16-.18-.2l-.53-.44c-.2-.16-.47-.41-.83-.76-.15-.11-.38-.31-.68-.6l-.82-.68c-.2-.2-.4-.38-.61-.55-.19-.18-.4-.35-.6-.49-.2-.1-.4-.2-.61-.3-.19-.11-.36-.21-.51-.31-.24-.19-.52-.35-.83-.48-.31-.13-.58-.27-.83-.42-.19-.09-.41-.23-.64-.4-.22-.18-.46-.33-.72-.42l-1.19-.46c-.16-.05-.31-.11-.46-.18-.15-.07-.32-.14-.53-.18-.65-.31-1.38-.53-2.17-.68-.16-.05-.31-.07-.46-.07s-.27-.02-.36-.07c-.31-.11-.6-.18-.89-.2-.27-.02-.56-.06-.86-.11-.15,0-.3-.04-.46-.11-.15-.07-.3-.11-.44-.11-.15-.05-.3-.06-.46-.04-.15.03-.27.01-.37-.04h-.53c-.2,0-.39-.01-.57-.04-.17-.03-.36-.04-.55-.04-.1-.05-.23-.06-.39-.04-.15.02-.27.04-.37.04h-1.05s-.08.02-.11.07c-.03.05-.07.07-.13.07h-.9c-.09.05-.19.06-.29.04-.1-.03-.2-.01-.29.04-.11,0-.24-.01-.39-.04-.15-.03-.27-.01-.37.04-.21,0-.39.03-.53.07-.15.05-.3.1-.46.15-.15,0-.3.03-.46.09-.15.05-.27.1-.36.15-1.05.15-2.11.37-3.16.66-.19.06-.39.12-.57.17-.17.05-.35.12-.55.22-.16.05-.31.12-.46.22-.15.09-.3.2-.44.31-.35.09-.7.21-1.03.33-.32.12-.63.27-.94.42l-1.58.9c-.24.15-.5.32-.76.53-.24.2-.49.39-.76.59-.19.15-.4.3-.6.46-.2.15-.39.3-.59.44l-.6.24c-.1.05-.19.12-.28.22-.07.1-.16.2-.26.3-.19.16-.37.32-.53.49-.15.17-.29.33-.44.49-.2.15-.4.31-.61.49-.19.17-.4.35-.6.55,0,0,.01.01.04.04.04.03.05.06.05.11-.11.1-.21.23-.31.39-.09.15-.19.27-.29.37-.16.19-.34.36-.53.49-.2.12-.38.28-.54.48-.19.31-.4.61-.6.92-.2.3-.39.59-.59.9-.21.34-.39.69-.53,1.05-.15.35-.32.7-.52,1.05-.11.21-.22.39-.35.53-.12.15-.23.33-.33.54-.11.19-.2.43-.28.71-.07.27-.16.53-.26.79-.05.19-.15.41-.31.64-.15.22-.27.45-.36.7-.05.26-.09.52-.11.77-.03.24-.09.49-.19.73-.05.21-.12.41-.23.61-.1.19-.17.42-.22.68-.05.15-.07.3-.07.46s-.03.27-.07.37c0,.1-.03.2-.07.29-.05.1-.07.2-.07.31-.05.2-.06.4-.04.61.03.19.01.39-.04.59,0,.21-.04.41-.13.6-.07.2-.11.42-.11.68v1.58c0,.1.01.21.04.33.03.12.04.24.04.35v.15s.01.09.04.15c.04.05.06.1.06.15s-.03.14-.09.28c-.05.12-.07.23-.07.33.05.1.06.21.04.35-.03.12-.04.26-.04.41l.24.9s.01.11.04.2c.03.07.04.16.04.26.05.05.05.12,0,.22-.05.1-.05.2,0,.3,0,.16.03.31.07.46.05.15.1.27.15.36.05.21.07.43.07.66s.03.43.07.62c.1.41.21.81.33,1.21.14.39.28.79.42,1.19l.68,1.66c.09.21.17.4.22.57.05.17.1.34.17.49.19.34.36.69.51,1.05.16.35.34.71.54,1.05l.82,1.51c.1.21.22.4.37.57.16.17.31.36.46.57l.83,1.12c.1.15.23.28.4.39.19.1.33.22.42.37.15.15.27.3.37.46.11.15.21.3.31.44.1.05.18.08.26.11.07.03.14.06.2.11.05.06.04.11-.02.17-.05.05-.05.07.02.07.05.05.09.06.11.04.03-.03.06-.01.11.04.1.05.2.14.3.26.1.12.2.24.31.35.29.3.52.49.66.59l1.14.83c.36.26.71.5,1.05.73.36.22.71.45,1.07.7.39.21.78.43,1.16.66.38.22.75.43,1.1.62.39.24.86.47,1.41.68.31.15.61.29.9.43.31.12.61.23.92.33.15.05.29.1.44.15.15.05.3.1.46.15.24.09.52.19.81.27.3.08.58.16.84.26l1.65.22c.2.05.37.09.52.11.16.03.34.06.53.11.16,0,.31.03.46.08.15.06.3.09.46.09.19.05.38.09.55.11.19.03.38.04.57.04.24,0,.47-.02.7-.07.23-.05.45-.07.66-.07.05,0,.08.02.11.04.03.03.04.04.04.04ZM62.26,48.85c-.86,0-1.65-.06-2.37-.18-.72-.12-1.44-.23-2.15-.33-.8-.21-1.54-.43-2.22-.68-.68-.26-1.36-.56-2.06-.9-1.31-.71-2.52-1.59-3.61-2.65-.51-.55-1.01-1.11-1.51-1.69-.5-.58-.95-1.19-1.34-1.84-.35-.65-.66-1.31-.92-1.98-.24-.69-.47-1.38-.66-2.07-.21-.71-.39-1.42-.54-2.11-.15-.7-.22-1.43-.22-2.19,0-.7.09-1.41.26-2.13.17-.73.36-1.45.57-2.15.15-.66.32-1.29.52-1.89.21-.6.46-1.17.75-1.72.41-.7.86-1.38,1.36-2.02.51-.66,1.03-1.27,1.58-1.82.51-.51,1.02-.95,1.55-1.34.53-.4,1.09-.78,1.69-1.14.6-.35,1.2-.68,1.8-.97.61-.31,1.24-.56,1.89-.76,1.6-.45,3.18-.68,4.74-.68.55,0,1.1.04,1.65.11.55.07,1.1.16,1.66.26,1.15.21,2.31.59,3.47,1.14.6.24,1.2.54,1.8.9.6.36,1.15.74,1.66,1.14.35.24.68.53.97.86.31.32.61.66.9,1.01,1.17,1.25,2.12,2.65,2.86,4.21.55,1.15.98,2.26,1.29,3.32.1.65.19,1.3.26,1.95.07.65.08,1.3.04,1.95-.05,2.21-.51,4.27-1.36,6.17-.34.95-.82,1.86-1.43,2.72-.6.84-1.28,1.67-2.02,2.48-.81.74-1.62,1.45-2.43,2.11-.8.65-1.61,1.18-2.46,1.58-.96.45-1.94.78-2.94.97-1.01.19-2.01.32-3.01.36Z"></path><path class="cls-4" d="M126,25.83c0-1.05.02-2.11.04-3.16.03-1.05.04-2.1.04-3.16s.02-2.04.04-3.09c.03-1.05.04-2.1.04-3.16s-.02-2.11-.07-3.16c-.05-1.05-.07-2.08-.07-3.09,0-.05.03-.09.07-.15.05-.05.07-.1.07-.15l-.15-.39c0-.2-.08-.3-.24-.3-.09-.05-.22-.07-.36-.07-.65,0-1.33.03-2.04.07-.7.05-1.4.08-2.09.08s-1.41-.03-2.11-.08c-.7-.05-1.41-.07-2.11-.07,0,0-.01.03-.04.07-.03.05-.06.08-.11.08-.3,0-.47.12-.53.36-.05.05-.05.11,0,.2.06.07.09.16.09.26,0,.91-.02,1.8-.05,2.68-.03.87-.04,1.73-.04,2.59s-.02,1.79-.04,2.67c-.03.88-.04,1.74-.04,2.59,0,.91.03,1.8.08,2.68.06.87.09,1.73.09,2.59,0,.91-.03,1.8-.09,2.68-.05.87-.08,1.73-.08,2.59v5.27c0,.89.02,1.78.04,2.66.02.88.04,1.74.04,2.59,0,.91-.03,1.8-.08,2.68-.05.87-.07,1.76-.07,2.67,0,.05.04.11.11.18.08.07.12.17.12.28v.37c0,.09-.02.21-.05.35-.03.12-.04.23-.04.33,0,.15-.03.3-.08.46-.05.15-.12.3-.22.44-.05.35-.2.73-.46,1.14l-.18.18c-.07.07-.16.16-.26.26-.19.21-.37.36-.53.46-.41.34-.91.59-1.51.76-.24.05-.49.11-.76.18-.24.07-.49.11-.75.11-.3,0-.59-.07-.9-.22-.2-.05-.41-.12-.65-.22-.22-.11-.43-.21-.62-.31-.5-.35-.88-.68-1.14-.97-.1-.15-.2-.28-.3-.41-.09-.14-.2-.28-.31-.42-.05-.21-.11-.4-.18-.57-.07-.17-.14-.36-.18-.57-.05-.09-.07-.22-.07-.36s-.03-.28-.07-.39c0-.05.02-.11.07-.18.05-.08.07-.14.07-.19,0-.05-.04-.08-.11-.11-.07-.03-.09-.04-.04-.04v-10.98c0-.86.01-1.73.04-2.62.02-.91.04-1.79.04-2.65,0-.91-.02-1.8-.04-2.67-.03-.88-.04-1.78-.04-2.68,0-.84.02-1.72.07-2.62.05-.91.07-1.79.07-2.65v-5.25c0-.91-.01-1.8-.04-2.67-.03-.88-.04-1.78-.04-2.68,0-.05.01-.08.04-.11.03-.03.04-.06.04-.11,0-.21-.03-.36-.07-.46,0-.1-.13-.15-.39-.15-.05,0-.1-.02-.15-.04-.05-.03-.09-.04-.15-.04-.7,0-1.4.02-2.11.04-.7.02-1.4.04-2.09.04-.66,0-1.35-.03-2.08-.08-.72-.05-1.44-.07-2.15-.07h-.22c-.1.05-.16.11-.18.19-.03.07-.06.16-.11.26-.11.31-.17.48-.17.53,0,.91.01,1.81.04,2.72.03.9.04,1.8.04,2.7,0,.85-.01,1.74-.04,2.65-.03.89-.04,1.79-.04,2.7v10.74c0,.86.01,1.74.04,2.65.03.9.04,1.8.04,2.7s-.01,1.81-.04,2.72c-.03.89-.04,1.77-.04,2.62,0,.91-.01,1.81-.04,2.72-.03.9-.04,1.79-.04,2.7v.54c0,.09.04.21.11.33.08.12.13.23.13.33,0,.21-.02.4-.06.58-.03.17,0,.33.06.48.05.15.07.29.07.42,0,.12.02.23.07.33.05.15.1.29.15.42.05.12.07.26.07.4l.3.97c.11.31.2.62.28.96.07.32.18.6.33.84.1.26.24.5.44.73.21.22.39.45.53.7.26.45.53.86.83,1.21.11.1.21.25.31.46.09.2.19.34.29.44.21.19.42.36.65.49.22.12.43.28.64.48.15.09.29.22.44.39.16.15.33.27.53.36.26.15.48.33.68.53.2.2.42.37.68.52.24.16.52.29.81.39.31.1.59.2.84.3.24.05.48.12.7.24.23.09.45.19.66.29l.59.15c.26.05.47.09.65.11.18.03.37.06.57.11.15.06.31.09.48.09h.49c.21.05.39.07.53.07h.44c.11.05.22.02.35-.09.12-.1.23-.12.33-.07v.09c.05,0,.1-.02.15-.05.06-.03.12-.04.17-.04h.3c.19,0,.44-.05.75-.15h.76c.26,0,.51-.02.75-.07.1-.1.15-.15.15-.15.09-.05.19-.07.29-.07.11,0,.19-.03.24-.07.1-.05.22-.07.36-.07.16,0,.31-.03.46-.07.24-.11.46-.24.66-.39.21-.15.42-.27.62-.37.19-.11.36-.21.51-.31.16-.1.31-.17.46-.22.24-.1.45-.22.62-.37.19-.16.38-.29.57-.39.16-.15.32-.27.49-.36.17-.11.34-.24.49-.39.1-.09.2-.19.3-.29.09-.11.19-.19.29-.24l.9-.9c.11-.15.22-.29.35-.44.12-.16.23-.31.33-.46.16-.15.29-.31.39-.48.1-.18.17-.38.22-.57.15-.26.3-.5.47-.72.19-.23.33-.45.43-.64.09-.15.17-.31.22-.48.06-.18.11-.38.17-.57,0-.05.05-.13.15-.24,0-.15.05-.32.15-.52l.22-1.43c.06-.15.1-.31.13-.48.03-.18.06-.38.11-.57.05-.21.09-.39.11-.53.03-.15.04-.33.04-.54,0-.05-.05-.22-.15-.52,0-.11.03-.22.07-.35.05-.12.07-.23.07-.33v-6.17c0-1.01.02-2.03.04-3.09.03-1.05.04-2.08.04-3.08s-.04-2.09-.11-3.12c-.07-1.03-.11-2.04-.11-3.05Z"></path><path class="cls-4" d="M138.34,32.3c0,1.01.01,2.02.04,3.05.03,1.03.04,2.07.04,3.12s-.01,2.02-.04,3.05c-.03,1.03-.04,2.05-.04,3.05s.01,2.02.04,3.05c.03,1.03.04,2.07.04,3.12s-.03,2.02-.07,3.05c-.05,1.03-.07,2.04-.07,3.05,0,.1.03.22.07.37.05.15.1.28.17.39,0,.24.05.39.15.44.24.35.49.53.76.53.39.1.67.15.82.15,1.15,0,2.3-.01,3.45-.04,1.15-.03,2.28-.04,3.38-.04,1.17,0,2.31-.01,3.44-.04,1.12-.03,2.24-.04,3.34-.04.15,0,.29.01.44.04.16.03.34.01.54-.04.61-.15.96-.45,1.06-.9.05-.16.06-.32.04-.49-.03-.17-.04-.34-.04-.49v-4.35c0-.26.03-.48.07-.68.05-.19.05-.4,0-.6v-.37c0-.16-.05-.29-.15-.39-.05-.1-.14-.18-.28-.26-.12-.07-.26-.14-.4-.18-.21-.11-.54-.17-.99-.17-.49,0-.98-.03-1.49-.07-.5-.05-1-.07-1.51-.07-.05,0-.11-.02-.2-.04-.07-.03-.16-.04-.26-.04-.05,0-.08.03-.11.08-.03.05-.06.07-.11.07-.05.05-.12.05-.2,0-.07-.05-.14-.07-.18-.07h-.15c-.19,0-.4-.02-.6-.04-.2-.03-.42-.06-.68-.11-.2-.09-.36-.22-.48-.36-.12-.16-.24-.34-.35-.53-.15-.26-.24-.51-.3-.76-.05-.24-.09-.49-.15-.76,0-.09-.01-.21-.04-.33-.03-.14-.04-.25-.04-.35v-.68c0-.89.03-1.79.07-2.7.05-.91.07-1.81.07-2.72s-.02-1.8-.07-2.7c-.05-.91-.07-1.78-.07-2.62,0-.91.01-1.81.04-2.72.03-.91.04-1.81.04-2.7v-5.42c0-.91.02-1.81.04-2.7.03-.91.04-1.81.04-2.72s-.01-1.81-.04-2.7c-.02-.91-.04-1.81-.04-2.72v-5.34c0-.15-.03-.28-.07-.41-.05-.13-.1-.25-.15-.35,0-.09.01-.18.04-.26s.01-.14-.04-.18c-.06-.11-.17-.2-.31-.28-.15-.07-.27-.14-.37-.18-.16-.05-.31-.09-.46-.11-.15-.03-.29-.04-.44-.04-.81,0-1.63.02-2.46.04-.82.02-1.66.04-2.52.04-.15,0-.3-.02-.46-.04-.15-.03-.3-.04-.44-.04-.1.05-.28.08-.53.08-.24.15-.47.4-.66.75-.06.15-.09.3-.09.46v.44c0,1.01-.01,2.03-.04,3.08-.03,1.06-.04,2.08-.04,3.09s-.01,2.02-.04,3.05c-.03,1.03-.04,2.05-.04,3.05s.03,2.02.07,3.05c.05,1.03.07,2.07.07,3.12,0,.99-.01,2-.04,3.03-.03,1.03-.04,2.05-.04,3.05Z"></path><path class="cls-7" d="M20.73,5.67c-.1-.05.06-.03.48.06.43.1.65.15.65.15h.31s.06,0,.06-.02c0-.03.03-.04.08-.04h.02s.04.02.04.06c.05,0,.23.06.54.17.04.04.09.06.15.06.05,0,.1.03.15.08.09.1.13.21.1.33-.02.13-.02.24-.02.33v3.85h.15c0,.66-.02,1.29-.04,1.92-.03.63-.04,1.27-.04,1.92,0,.2-.02.34-.06.44-.1.25-.27.41-.52.46h-.08c-.16,0-.33-.05-.52-.15h-.23c-.1,0-.21.02-.33.04-.13.02-.27.02-.42.02-.25.06-.49.11-.73.17-.22.04-.46.12-.71.23-.16.1-.31.2-.46.29-.14.1-.29.22-.44.38-.31.16-.58.35-.83.6l-.52.67c-.06.11-.14.23-.23.35-.1.13-.18.27-.23.42-.06.1-.07.21-.04.33.03.13.01.24-.04.33-.04.21-.12.41-.23.58-.1.17-.15.35-.15.54l-.06.31c0,.2.02.4.06.6.05.2.11.4.17.6l.44,1.04c.09.16.17.29.23.42.05.13.1.24.15.33.11.16.21.32.31.5.09.17.19.35.29.56.15.16.29.32.42.5.13.17.23.35.33.54.11.16.23.31.35.46.13.16.21.31.25.46l.75.9c.15.2.29.37.42.52.13.16.26.33.42.54.09.2.22.37.38.52.15.16.28.31.38.46.15.2.3.39.46.56.15.17.3.35.46.56.09.2.19.39.29.56.09.17.22.33.38.48l.6.92c.09.2.19.39.29.56.11.17.23.33.38.48.11.21.23.38.38.5.15.13.28.27.4.42.09.14.18.29.25.44.08.16.17.31.27.46.19.31.32.53.38.67.25.41.45.81.6,1.21.19.31.32.54.38.69l.46,1.5c.09.2.15.43.17.69.03.25.07.5.13.75.05.1.07.21.04.33-.03.13-.02.24.04.33,0,.1,0,.2.02.31.03.1.04.2.04.29v1.35c0,.16-.02.31-.06.46l.06.06c-.04.16-.06.31-.06.46s-.03.31-.08.46v.56c0,.17-.03.35-.08.56l-.21,1.13c-.06.35-.15.69-.27,1.02-.13.32-.24.66-.33,1.02-.11.29-.27.58-.46.85-.2.28-.37.57-.52.88-.11.2-.2.41-.27.65-.07.22-.18.43-.33.63-.1.2-.21.39-.33.56-.13.18-.27.35-.42.5-.21.29-.36.49-.46.58-.2.21-.39.41-.56.58-.18.17-.37.33-.56.48-.31.31-.54.51-.69.6-.16.16-.32.29-.5.42-.17.13-.33.24-.48.33l-.6.46c-.14.1-.3.21-.48.33-.18.13-.37.24-.56.33-.21.16-.47.27-.77.35-.29.07-.59.16-.9.25-.35.16-.68.31-.98.46-.29.15-.61.28-.96.38-.27.04-.52.09-.77.15-.25.05-.5.1-.75.15h-.06c-.16,0-.28-.02-.38-.06h-.46v.15h-.08l-1.73-.08s-.1.01-.19.04c-.07.03-.14.04-.19.04h-.15c-.16-.06-.32-.11-.5-.17-.17-.04-.35-.09-.56-.15-.1-.04-.24-.06-.42-.06-.17,0-.35-.03-.56-.08-.2-.04-.39-.09-.56-.15-.17-.05-.35-.1-.56-.15-.1-.05-.2-.1-.29-.15-.1-.05-.2-.11-.31-.17-.25-.15-.38-.35-.38-.6-.04-.09-.09-.21-.15-.33-.06-.13-.08-.23-.08-.33v-7.08c0-.09.03-.19.08-.29.05-.09.08-.17.08-.23,0-.25.05-.42.15-.52.09-.05.24-.07.44-.04.21.03.36.04.46.04h.83c.09,0,.21.02.33.04.13.02.21.02.27.02.09,0,.19.03.29.08.11.06.21.08.31.08h.23s.09-.03.17-.08c.08-.05.15-.08.21-.08.34,0,.61-.02.81-.06.25,0,.48-.01.71-.04.23-.03.45-.06.65-.1.46-.15.96-.35,1.52-.6.19-.11.36-.23.52-.35.15-.13.3-.21.46-.25.34-.3.67-.63.98-.98.09-.15.19-.3.29-.46.09-.15.17-.28.23-.38.04-.15.09-.29.15-.42.05-.13.1-.23.15-.33.05-.09.1-.18.15-.25.05-.08.08-.17.08-.27v-.17c0-.14-.02-.27-.04-.4-.02-.13-.02-.26-.02-.42,0-.46-.08-.91-.23-1.35-.06-.25-.14-.5-.23-.75-.1-.25-.22-.48-.38-.69-.16-.25-.33-.51-.54-.79-.2-.28-.39-.51-.58-.71-.11-.25-.24-.45-.4-.6-.14-.15-.29-.32-.44-.52-.21-.3-.41-.6-.58-.9-.17-.3-.35-.61-.54-.92l-1.13-1.35c-.11-.15-.22-.31-.31-.48-.1-.18-.2-.34-.29-.5-.16-.19-.29-.39-.42-.58-.13-.21-.27-.42-.42-.63-.16-.19-.31-.36-.46-.52-.16-.15-.28-.32-.38-.52-.16-.25-.29-.5-.42-.75s-.27-.48-.42-.69c-.14-.19-.3-.36-.48-.52-.18-.15-.32-.33-.42-.54-.16-.25-.28-.47-.38-.67-.1-.19-.2-.36-.29-.52-.11-.25-.22-.47-.31-.67-.1-.21-.2-.42-.29-.63-.06-.09-.1-.22-.13-.38-.03-.15-.06-.3-.1-.44-.06-.21-.15-.41-.27-.6-.13-.21-.24-.41-.33-.6-.06-.15-.07-.31-.04-.48.03-.18.01-.34-.04-.5l-.21-1.21c0-.09-.03-.19-.08-.29-.06-.11-.08-.19-.08-.23,0-.15.01-.3.04-.46.03-.15.04-.32.04-.52-.06-.15-.08-.43-.08-.83.05,0,.07-.01.04-.04-.03-.03-.04-.04-.04-.04.05-.14.08-.28.08-.44s.03-.28.08-.38c0-.21-.02-.4-.04-.56-.03-.18-.02-.36.04-.56.04-.21.09-.39.17-.54.08-.15.15-.32.21-.52l.21-.75c.11-.25.17-.5.19-.75.03-.25.09-.48.19-.69.15-.4.35-.82.6-1.27.11-.09.17-.21.19-.33.03-.13.07-.21.13-.27.09-.25.22-.5.38-.75.15-.25.3-.48.46-.69l.81-1.04c.11-.11.21-.21.31-.31.09-.09.19-.19.29-.29l.23-.15c0-.05-.02-.09-.04-.13-.03-.03-.04-.04-.04-.04.05-.09.15-.17.27-.21.13-.05.23-.11.33-.17l-.06-.15c.19-.19.39-.38.58-.56.21-.18.41-.34.6-.48.26-.21.53-.36.79-.46.28-.09.54-.22.79-.38.5-.25,1.05-.48,1.67-.69.29-.09.59-.21.9-.33.3-.13.6-.21.9-.27.21-.04.4-.06.56-.06h1.33c.25,0,.5-.02.75-.06.25-.05.5-.08.75-.08Z"></path><path class="cls-7" d="M61.29,59.23c.19,0,.38.03.56.08.18.05.36.05.56,0,.09,0,.22.01.38.04.15.03.28.01.38-.04.11,0,.23-.03.35-.08.13-.04.23-.06.33-.06l1.13-.23c.25-.06.5-.08.75-.08s.5-.02.75-.06c.36-.11.71-.21,1.06-.31.34-.09.69-.19,1.04-.29.46-.11.9-.23,1.31-.38.43-.15.84-.3,1.25-.46.15-.09.31-.15.48-.15.18,0,.34-.03.5-.08.21-.09.41-.19.6-.29.19-.11.4-.19.6-.23.15-.09.28-.21.38-.33.09-.13.22-.24.38-.35.19,0,.34-.02.46-.06.19-.09.36-.22.52-.38.15-.15.32-.28.52-.38.25-.15.51-.3.79-.46.28-.15.54-.32.79-.52l1.13-.92c.11-.09.23-.18.35-.25.13-.08.23-.15.33-.19.04-.05.09-.13.15-.23.05-.09.1-.17.15-.23.09-.09.22-.17.38-.21.15-.05.26-.14.31-.25.19-.15.36-.32.52-.52.15-.19.32-.4.52-.6.11-.09.21-.17.31-.21.09-.05.17-.11.23-.17.19-.3.36-.53.52-.67.09-.15.19-.32.29-.5.11-.18.21-.34.31-.48.09-.21.22-.38.38-.5.15-.13.3-.28.46-.48.14-.25.27-.5.4-.75.13-.26.26-.49.42-.69.15-.25.3-.5.46-.75.15-.25.3-.48.46-.69.19-.34.35-.68.48-1,.13-.33.26-.65.42-.96l.46-.96c.04-.15.07-.29.1-.42.03-.13.06-.26.1-.42.11-.25.21-.5.31-.75.09-.25.17-.5.23-.75.09-.26.17-.54.21-.83.05-.3.11-.61.17-.92.04-.19.09-.36.15-.52.05-.15.1-.3.15-.44v-.83c.09-.3.15-.53.15-.69v-.52c.05-.09.09-.19.13-.29.03-.11.04-.21.04-.31.04-.15.06-.31.06-.48v-.5c0-.19-.03-.36-.08-.52-.04-.15-.06-.3-.06-.46s.03-.29.1-.42c.08-.13.09-.23.04-.33,0-.19-.02-.38-.04-.56-.02-.18-.02-.34-.02-.48v-.08c0-.09-.02-.22-.04-.38-.03-.15-.04-.28-.04-.38,0-.09-.05-.25-.15-.46,0-.19-.02-.38-.04-.56-.03-.18-.04-.34-.04-.48-.04-.21-.06-.4-.06-.56,0-.18-.03-.38-.08-.58-.06-.25-.1-.51-.13-.77-.02-.28-.07-.55-.17-.81-.06-.25-.14-.51-.23-.77-.1-.28-.2-.57-.31-.88-.1-.25-.2-.52-.29-.81-.1-.3-.2-.58-.31-.83-.04-.25-.12-.47-.23-.67-.1-.21-.2-.42-.29-.63-.04-.19-.14-.38-.27-.56-.13-.18-.24-.36-.33-.56-.04-.19-.12-.38-.23-.56-.1-.18-.2-.34-.29-.5l-.69-.9c-.1-.25-.22-.45-.38-.6-.14-.15-.29-.32-.44-.52l-.69-.9c-.1-.11-.18-.23-.23-.38-.04-.15-.11-.28-.21-.4-.21-.29-.36-.48-.46-.58-.1-.11-.21-.21-.33-.31-.13-.09-.24-.17-.35-.23-.04-.09-.08-.18-.1-.25-.03-.08-.09-.15-.19-.19l-.52-.46c-.21-.15-.49-.4-.83-.75-.16-.09-.39-.3-.69-.6l-.81-.69c-.21-.19-.42-.38-.63-.54-.2-.18-.39-.34-.58-.5-.21-.09-.41-.19-.6-.29-.2-.11-.37-.21-.52-.31-.25-.21-.53-.38-.83-.5-.31-.13-.58-.26-.83-.4-.2-.11-.41-.25-.65-.42-.22-.18-.46-.32-.71-.42l-1.21-.46c-.14-.04-.29-.09-.44-.17-.16-.08-.33-.15-.54-.21-.66-.3-1.38-.53-2.17-.67-.16-.05-.31-.08-.46-.08s-.28-.03-.38-.08c-.31-.09-.6-.15-.88-.17-.27-.03-.55-.07-.85-.13-.16,0-.31-.03-.46-.1-.16-.08-.3-.13-.44-.13-.16-.05-.31-.07-.46-.04-.16.03-.28.02-.38-.04h-.52c-.21,0-.41,0-.58-.02-.17-.03-.35-.04-.56-.04-.1-.05-.22-.07-.38-.04-.16.03-.28.04-.38.04h-1.04c-.06,0-.1.03-.13.08-.03.04-.06.06-.1.06h-.92c-.1.06-.2.07-.29.04-.1-.03-.2-.01-.29.04-.11,0-.24-.01-.4-.04-.14-.03-.27-.01-.38.04-.2,0-.37.03-.52.08-.16.04-.3.09-.44.15-.16,0-.31.03-.46.08-.16.04-.28.08-.38.13-1.06.16-2.11.39-3.17.69-.2.04-.39.09-.56.15-.18.06-.37.14-.56.23-.16.06-.31.14-.46.23-.16.1-.3.2-.44.29-.36.1-.71.22-1.04.35-.32.13-.63.26-.92.4l-1.58.92c-.25.16-.5.33-.75.52-.25.2-.5.4-.75.6-.21.16-.42.31-.63.46-.2.14-.39.29-.58.44l-.6.23c-.1.06-.19.14-.27.23-.07.1-.16.2-.25.29-.21.16-.39.32-.54.5-.16.17-.3.33-.44.48-.21.16-.42.32-.63.5-.2.17-.39.35-.58.56,0,0,0,.02.02.04.03.02.04.05.04.1-.1.1-.2.22-.29.38-.1.16-.2.28-.29.38-.16.21-.33.38-.54.5-.2.13-.37.29-.52.48-.2.31-.4.61-.6.92-.2.29-.4.59-.6.9-.2.35-.37.7-.52,1.06-.16.35-.33.7-.52,1.04-.11.2-.23.37-.35.52-.13.16-.24.33-.33.54-.1.2-.19.43-.27.71-.07.28-.16.54-.25.79-.06.2-.16.41-.31.65-.14.22-.27.46-.38.71-.04.25-.08.5-.1.75-.03.25-.09.5-.19.75-.06.2-.14.4-.23.6-.1.2-.18.42-.23.67-.04.16-.06.31-.06.46s-.03.28-.08.38c0,.1-.03.2-.08.31-.04.1-.06.2-.06.29-.06.21-.07.41-.04.6.03.2.01.4-.04.6,0,.2-.04.4-.13.6-.07.2-.1.42-.1.67v1.58c0,.1.01.21.04.33.03.13.04.24.04.35v.15s.01.09.04.15c.03.06.04.1.04.15,0,.06-.03.15-.08.27-.06.13-.08.24-.08.33.05.1.07.21.04.33-.03.13-.04.27-.04.42l.23.92s.01.1.04.19c.03.07.04.16.04.25.04.06.03.14-.02.23-.04.1-.04.2.02.31,0,.14.02.29.06.44.05.16.11.28.17.38.04.21.06.43.06.65s.03.44.08.65c.09.41.21.81.33,1.21.13.39.26.79.42,1.19l.67,1.67c.11.2.19.39.23.56.05.18.1.34.15.48.21.36.39.72.54,1.06.15.35.32.7.52,1.06l.83,1.5c.09.2.22.39.38.56.15.17.3.35.46.56l.81,1.13c.09.16.23.28.42.38.18.1.32.22.42.38.15.16.28.31.38.46.09.16.19.31.29.46.11.04.2.08.27.1.08.03.15.06.19.1.05.06.05.11,0,.17-.04.04-.04.06,0,.06.05.06.09.07.1.04.03-.03.07-.01.13.04.09.04.19.14.29.27.11.13.21.24.31.33.3.29.53.49.67.6l1.15.81c.34.25.69.49,1.04.73.34.22.7.46,1.06.71.4.2.79.41,1.17.65.38.22.73.43,1.08.63.4.25.88.48,1.44.69.29.16.59.29.9.42.3.13.6.24.9.33.15.06.3.11.46.17.15.04.3.08.46.13.25.11.52.21.81.29.3.07.58.16.83.25l1.67.23c.19.04.36.07.52.1.15.03.32.06.52.1.15,0,.3.03.46.08.15.05.3.08.46.08.19.04.38.07.54.1.18.03.38.04.58.04.25,0,.48-.03.71-.08.22-.04.44-.06.65-.06.04,0,.07,0,.1.02.03.03.04.04.04.04ZM62.27,48.86c-.85,0-1.64-.06-2.38-.19-.72-.13-1.44-.23-2.15-.33-.81-.21-1.55-.44-2.23-.69-.67-.25-1.35-.55-2.06-.9-1.31-.71-2.51-1.59-3.6-2.65-.5-.54-1-1.1-1.5-1.69s-.95-1.19-1.35-1.83c-.36-.65-.67-1.32-.92-2-.25-.68-.47-1.38-.67-2.08-.21-.69-.39-1.39-.54-2.08-.14-.71-.21-1.44-.21-2.19,0-.71.08-1.42.25-2.15.18-.73.36-1.45.56-2.15.15-.65.32-1.28.52-1.88.21-.61.46-1.19.77-1.75.4-.69.85-1.36,1.35-2.02.5-.65,1.03-1.26,1.58-1.81.5-.5,1.01-.95,1.54-1.35.53-.4,1.09-.78,1.69-1.13.59-.34,1.19-.67,1.79-.98.61-.3,1.24-.55,1.9-.75,1.61-.46,3.19-.69,4.75-.69.54,0,1.09.04,1.65.13.55.07,1.11.16,1.67.25,1.15.21,2.3.59,3.46,1.15.59.25,1.19.55,1.79.9.61.35,1.17.72,1.67,1.13.34.25.67.54.96.88.3.32.61.66.92,1,1.15,1.27,2.1,2.68,2.85,4.23.55,1.16.98,2.26,1.29,3.31.09.66.18,1.31.25,1.96.08.64.09,1.29.04,1.94-.04,2.21-.49,4.27-1.35,6.19-.35.95-.83,1.85-1.44,2.71-.6.85-1.27,1.68-2.02,2.48-.81.75-1.61,1.45-2.42,2.1-.79.66-1.62,1.18-2.48,1.58-.95.45-1.93.77-2.94.98-1,.2-2,.32-3,.38Z"></path><path class="cls-8" d="M126,25.84c0-1.05.01-2.11.04-3.17.03-1.05.04-2.11.04-3.17,0-1,.01-2.03.04-3.08.03-1.05.04-2.11.04-3.17s-.03-2.09-.08-3.15c-.06-1.05-.08-2.08-.08-3.08,0-.05.03-.1.08-.15.05-.05.08-.11.08-.17l-.17-.38c0-.19-.07-.29-.21-.29-.11-.05-.24-.08-.4-.08-.66,0-1.33.03-2.04.08-.7.04-1.39.06-2.08.06s-1.42-.02-2.13-.06c-.7-.05-1.39-.08-2.08-.08l-.04.08s-.07.06-.13.06c-.29,0-.47.13-.52.38-.06.06-.06.13,0,.21.05.07.08.16.08.25,0,.91-.02,1.79-.04,2.67-.03.88-.04,1.74-.04,2.6,0,.91-.02,1.79-.04,2.67-.03.88-.04,1.74-.04,2.6,0,.91.03,1.79.08,2.67.05.88.08,1.74.08,2.58,0,.91-.03,1.8-.08,2.69-.06.88-.08,1.74-.08,2.58v5.27c0,.91.01,1.8.04,2.69.03.88.04,1.74.04,2.58,0,.91-.03,1.79-.08,2.67-.04.88-.06,1.77-.06,2.67,0,.06.03.13.1.21.08.07.13.16.13.25v.38c0,.1-.02.21-.04.33-.03.13-.04.24-.04.35,0,.16-.03.31-.08.46-.04.14-.11.29-.21.44-.06.35-.21.72-.46,1.13l-.21.21c-.07.07-.16.16-.25.25-.2.2-.37.35-.52.46-.41.35-.91.6-1.5.75-.25.04-.5.1-.75.19-.25.07-.51.1-.77.1-.29,0-.59-.07-.9-.23-.2-.04-.41-.11-.65-.21-.22-.11-.43-.21-.63-.31-.5-.34-.88-.67-1.13-.98-.11-.15-.22-.29-.31-.42-.1-.13-.2-.26-.29-.42-.06-.19-.13-.38-.21-.54-.07-.18-.13-.38-.17-.58-.06-.09-.08-.22-.08-.38s-.03-.28-.08-.38c0-.05.03-.11.08-.19.05-.07.08-.13.08-.19,0-.05-.04-.09-.13-.1-.07-.03-.08-.04-.04-.04v-11c0-.84.01-1.72.04-2.63.03-.9.04-1.78.04-2.63,0-.9-.02-1.79-.04-2.67-.03-.89-.04-1.78-.04-2.69,0-.84.03-1.72.08-2.63.05-.9.08-1.78.08-2.65v-5.27c0-.9-.02-1.79-.04-2.67-.03-.88-.04-1.76-.04-2.67,0-.05.01-.09.04-.1.03-.03.04-.07.04-.13,0-.19-.03-.34-.08-.46,0-.09-.13-.15-.38-.15-.06,0-.11,0-.17-.02-.04-.03-.09-.04-.15-.04-.7,0-1.4.02-2.1.04-.7.02-1.4.02-2.1.02-.66,0-1.35-.02-2.08-.06-.72-.05-1.43-.08-2.13-.08h-.23c-.1.06-.16.12-.19.19-.03.07-.06.16-.1.27-.11.29-.17.47-.17.52,0,.91.01,1.81.04,2.71.03.91.04,1.81.04,2.71,0,.85-.02,1.72-.04,2.63-.03.91-.04,1.81-.04,2.71v10.77c0,.85.01,1.72.04,2.63.03.91.04,1.81.04,2.71s-.02,1.81-.04,2.71c-.03.91-.04,1.79-.04,2.65,0,.91-.02,1.81-.04,2.71-.02.91-.02,1.81-.02,2.71v.52c0,.1.03.22.1.35.08.13.13.24.13.33,0,.2-.02.39-.04.56-.03.17-.02.33.04.48.04.16.06.29.06.42s.03.24.08.33c.04.16.09.29.15.42.05.13.08.27.08.42l.29.98c.09.31.18.63.25.96.08.32.2.6.35.85.09.25.24.49.44.71.21.22.39.46.54.71.25.46.53.86.83,1.21.09.1.19.25.29.46.09.2.2.35.31.46.19.2.4.35.63.48.23.13.45.29.65.5.15.1.3.22.46.38.15.14.32.27.52.38.25.14.47.31.67.52.21.2.44.37.69.52.25.16.52.28.81.38.3.1.58.2.83.31.26.04.51.12.73.23.22.1.43.2.63.29l.6.15c.25.05.46.09.65.1.18.03.36.07.56.13.15.05.31.08.48.08h.5c.21.04.38.06.52.06h.46c.09.05.21.03.33-.08.13-.1.24-.12.35-.06v.08s.08-.02.13-.04c.05-.03.11-.04.17-.04h.29c.21,0,.46-.05.77-.15h.75c.25,0,.5-.03.75-.08.09-.1.15-.15.15-.15.09-.05.19-.08.29-.08.11,0,.19-.02.23-.06.11-.05.23-.08.38-.08.15,0,.3-.02.46-.06.25-.11.47-.23.67-.38.21-.15.41-.28.6-.4.21-.09.39-.19.54-.29.15-.09.3-.17.44-.23.25-.09.46-.22.65-.38.18-.15.36-.28.56-.38.15-.15.31-.28.48-.38.18-.09.34-.22.5-.38.09-.09.19-.19.29-.29.11-.11.21-.19.31-.23l.9-.92c.11-.15.23-.3.35-.44.13-.15.23-.3.33-.46.15-.15.28-.31.38-.48.09-.18.17-.38.23-.58.15-.25.31-.48.48-.71.18-.22.32-.44.42-.65.09-.14.17-.3.23-.48.05-.18.1-.36.15-.56,0-.05.05-.13.15-.23,0-.15.05-.32.17-.52l.23-1.44c.04-.15.07-.31.1-.48.03-.18.06-.38.1-.58.05-.19.09-.36.13-.52.03-.15.04-.32.04-.52,0-.05-.06-.23-.17-.52,0-.11.03-.23.08-.35.05-.13.08-.23.08-.33v-6.17c0-1,0-2.03.02-3.08.03-1.05.04-2.08.04-3.08,0-1.05-.04-2.09-.13-3.13-.07-1.03-.1-2.04-.1-3.04Z"></path><path class="cls-5" d="M138.34,32.3c0,1,.01,2.02.04,3.06.03,1.03.04,2.06.04,3.1s-.02,2.04-.04,3.06c-.03,1.03-.04,2.04-.04,3.04s.01,2.02.04,3.04c.03,1.03.04,2.07.04,3.13s-.03,2.02-.08,3.04c-.04,1.03-.06,2.05-.06,3.06,0,.1.02.22.06.38.05.16.11.28.17.38,0,.25.05.4.15.44.25.36.5.54.75.54.4.1.68.15.83.15,1.15,0,2.3-.01,3.46-.04,1.15-.03,2.28-.04,3.38-.04s2.29,0,3.42-.02c1.14-.03,2.26-.04,3.35-.04.15,0,.3.02.46.04.15.02.32,0,.52-.04.61-.15.96-.46,1.06-.92.05-.14.07-.3.04-.48-.03-.18-.04-.34-.04-.5v-4.35c0-.25.02-.47.06-.67.05-.21.06-.41.02-.6v-.38c0-.15-.06-.28-.17-.4-.04-.09-.13-.18-.25-.25-.13-.08-.27-.15-.42-.19-.21-.09-.54-.15-.98-.15-.5,0-1-.03-1.5-.08-.5-.05-1.01-.08-1.52-.08-.04,0-.1,0-.19-.02-.07-.03-.16-.04-.25-.04-.06,0-.1.03-.13.08-.02.04-.05.06-.1.06-.06.06-.13.06-.21,0-.07-.05-.13-.08-.17-.08h-.15c-.21,0-.42,0-.63-.02-.2-.03-.42-.07-.67-.13-.2-.09-.35-.22-.48-.38-.13-.15-.24-.32-.33-.52-.16-.25-.26-.5-.31-.75-.06-.25-.1-.5-.15-.75,0-.11-.02-.23-.04-.35-.03-.13-.04-.23-.04-.33v-.67c0-.92.02-1.82.06-2.73.05-.9.08-1.8.08-2.71s-.03-1.8-.08-2.71c-.04-.9-.06-1.78-.06-2.63,0-.9.01-1.8.04-2.71.03-.9.04-1.8.04-2.71v-5.42c0-.9,0-1.8.02-2.71.03-.9.04-1.8.04-2.71s-.02-1.8-.04-2.71c-.02-.9-.02-1.8-.02-2.71v-5.35c0-.15-.03-.29-.08-.42-.04-.13-.09-.23-.15-.33,0-.09.01-.18.04-.25.03-.08.01-.15-.04-.21-.06-.09-.16-.18-.31-.25-.14-.08-.27-.15-.38-.19-.14-.05-.29-.09-.44-.1-.16-.03-.31-.04-.46-.04-.81,0-1.63.02-2.46.04-.82.02-1.66.02-2.5.02-.16,0-.31,0-.46-.02-.16-.03-.31-.04-.46-.04-.1.04-.27.06-.52.06-.25.16-.47.41-.67.75-.06.16-.08.31-.08.46v.46c0,1-.02,2.03-.04,3.08-.03,1.06-.04,2.08-.04,3.08s-.02,2.02-.04,3.04c-.02,1.03-.02,2.04-.02,3.04s.02,2.04.06,3.06c.05,1.03.08,2.07.08,3.13s-.02,2.02-.04,3.04c-.03,1.03-.04,2.04-.04,3.04Z"></path><g class="cls-9"><path class="cls-7" d="M80.97,32.45c0,1.3-.13,2.59-.38,3.87-.26,1.28-.63,2.52-1.13,3.72s-1.11,2.34-1.83,3.43-1.54,2.08-2.46,3.01-1.92,1.74-3.01,2.46-2.22,1.33-3.43,1.83-2.44.88-3.72,1.13c-1.28.25-2.57.38-3.87.38s-2.59-.13-3.87-.38c-1.28-.26-2.52-.63-3.72-1.13s-2.34-1.11-3.43-1.83-2.08-1.54-3.01-2.46-1.74-1.92-2.46-3.01c-.72-1.08-1.34-2.22-1.83-3.43-.5-1.2-.88-2.44-1.13-3.72-.26-1.28-.38-2.57-.38-3.87s.13-2.59.38-3.87.63-2.52,1.13-3.72c.49-1.2,1.11-2.34,1.83-3.43.72-1.08,1.54-2.08,2.46-3.01s1.92-1.74,3.01-2.47c1.08-.72,2.22-1.33,3.43-1.83,1.2-.5,2.44-.88,3.72-1.13s2.57-.38,3.87-.38,2.59.13,3.87.38c1.28.26,2.52.63,3.72,1.13,1.2.49,2.34,1.11,3.43,1.83,1.08.72,2.08,1.55,3.01,2.47s1.74,1.92,2.46,3.01,1.33,2.22,1.83,3.43.88,2.44,1.13,3.72c.25,1.28.38,2.57.38,3.87Z"></path></g><g class="cls-6"><path class="cls-5" d="M80.69,22.21c-2.15-3.33-6.23-5.38-10.26-5.16-3.8.21-7.41,2.43-9.29,5.66-1.88-3.23-5.49-5.45-9.29-5.66-4.03-.22-8.1,1.83-10.26,5.16-1.4,2.16-1.99,4.76-1.88,7.31.3,6.79,5.17,12.44,10.04,16.84,3.43,3.1,7.26,5.77,11.39,7.91,4.13-2.14,7.96-4.81,11.39-7.91,4.86-4.41,9.73-10.05,10.04-16.84.11-2.55-.49-5.15-1.89-7.31Z"></path></g><path class="cls-1" d="M179.36,58.58c10.49,0,21.73-10.86,29.3-22.25,0-1.02-1.33-1.9-2.06-1.9-7.57,10.72-17.55,18.2-26.87,18.2-5.13,0-7.33-2.42-7.33-6.83,0-14.16,17.18-34.51,25.93-34.51,1.9,0,3.08,1.11,3.08,3.15,0,4.41-5.59,11.77-9.48,13.97,1.04.67,2.2.95,3.46.95,5.58,0,11.96-6.39,11.96-12.64s-6.31-9.83-11.67-9.83c-13.21,0-30.69,22.09-30.69,36.94,0,8.8,6.61,14.76,14.4,14.76ZM202.98,56.08c.67,0,1.19-.14,1.19-.59,4.55-11.98,17.03-27.17,20.04-27.17.22,0,.38.15.38.36,0,2.06-8.16,11.67-8.16,18.07,0,4.18,3.16,7.71,6.24,7.71,4.2,0,11.53-6.47,19.03-18.15,0-1.02-1.33-1.9-2.06-1.9-5.79,8.44-11.89,13.88-14.31,13.88-.73,0-1.11-.45-1.11-1.4,0-3.82,6.4-14.69,8.75-17.84.36-.23.51-.67.51-1.19,0-2.06-2.49-5.21-6.67-5.21-4.41,0-13.81,10.79-19.33,19.9l-.43-.22c4.56-12.33,15.14-30.48,17.18-30.48.31-.14.45-.52.45-.81,0-1.4-2.58-3.53-4.69-3.53-3.82,0-22.18,34.89-22.18,43.63,0,3.17,3.37,4.93,5.2,4.93ZM238.68,56.51c4.7,0,10.2-13.5,13.43-17.54l.59.15c-.81,2.11-1.76,4.91-1.76,8.14,0,4.62,2.94,6.61,4.77,6.61,3.08,0,8.96-5.58,16.16-17.55,0-1.02-1.31-1.9-2.05-1.9-6.09,8.95-9.34,12.33-11.61,12.33-.74,0-1.03-.52-1.03-1.47,0-2.94,2.94-9.04,3.75-9.18.14-.14.21-.38.21-.66,0-1.54-2.78-3.68-5.43-3.68-3.6,0-13.5,18.01-15.87,18.01-.43,0-.8-.31-.8-1.47,0-5.59,8.08-22.1,16.01-22.1,2.28,0,3.89.87,3.82,4.18,1.92-.29,2.72-1.54,2.72-3.01,0-2.71-4.7-6.24-8.66-6.24-8.9,0-21.3,17.03-21.3,27.04,0,4.25,3.44,8.35,7.05,8.35ZM288.76,34.43c-5.65,8.21-13.14,15.78-17.55,15.78-.95,0-1.4-.73-1.4-1.97,0-4.34,4.04-13,8.45-20.42,3.46-.15,6.97-.22,8.96-.22.21-.23.36-.66.36-1.18,0-1.33-.88-3.08-3.75-3.08-.72,0-1.76,0-2.85.07,2.78-4.34,5.36-7.57,6.67-8.38.31-.14.38-.29.38-.59,0-1.16-2.28-3.58-4.77-3.58-1.61,0-5.95,5.72-10.22,12.93-2.56.07-4.7.21-5.65.29-.35.52-.52,1.02-.52,1.54,0,1.26.96,2.42,2.51,2.42h1.16c-4.34,7.85-7.99,16.39-7.99,20.78,0,3.98,3.08,7.06,6.53,7.06,7.71,0,18.29-14.04,21.75-19.54,0-.95-1.18-1.9-2.06-1.9ZM307.7,34.43c-5.65,8.21-13.14,15.78-17.55,15.78-.95,0-1.4-.73-1.4-1.97,0-4.34,4.04-13,8.45-20.42,3.46-.15,6.97-.22,8.96-.22.21-.23.36-.66.36-1.18,0-1.33-.88-3.08-3.75-3.08-.71,0-1.76,0-2.85.07,2.78-4.34,5.36-7.57,6.67-8.38.31-.14.38-.29.38-.59,0-1.16-2.28-3.58-4.77-3.58-1.61,0-5.95,5.72-10.22,12.93-2.56.07-4.7.21-5.65.29-.35.52-.52,1.02-.52,1.54,0,1.26.97,2.42,2.51,2.42h1.16c-4.34,7.85-7.99,16.39-7.99,20.78,0,3.98,3.08,7.06,6.53,7.06,7.71,0,18.29-14.04,21.75-19.54,0-.95-1.18-1.9-2.06-1.9ZM306.74,56.51c4.7,0,10.2-13.5,13.43-17.54l.59.15c-.81,2.11-1.76,4.91-1.76,8.14,0,4.62,2.94,6.61,4.77,6.61,3.08,0,8.96-5.58,16.16-17.55,0-1.02-1.31-1.9-2.05-1.9-6.09,8.95-9.34,12.33-11.61,12.33-.73,0-1.03-.52-1.03-1.47,0-2.94,2.94-9.04,3.75-9.18.14-.14.21-.38.21-.66,0-1.54-2.78-3.68-5.43-3.68-3.6,0-13.5,18.01-15.86,18.01-.43,0-.81-.31-.81-1.47,0-5.59,8.08-22.1,16.01-22.1,2.28,0,3.89.87,3.82,4.18,1.92-.29,2.72-1.54,2.72-3.01,0-2.71-4.7-6.24-8.66-6.24-8.9,0-21.3,17.03-21.3,27.04,0,4.25,3.44,8.35,7.05,8.35ZM334.12,56.08c.73,0,1.18-.14,1.26-.59,4.48-11.98,17.24-27.17,20.26-27.17.3,0,.45.15.45.36,0,1.99-8.3,11.6-8.3,18.07,0,4.18,3.23,7.71,6.31,7.71,4.19,0,11.53-6.47,18.88-18.15,0-1.02-1.33-1.9-2.06-1.9-5.65,8.37-11.74,13.88-14.17,13.88-.73,0-1.11-.45-1.11-1.4,0-3.82,6.4-14.69,8.82-17.84.36-.23.43-.67.43-1.19,0-2.06-2.42-5.21-6.6-5.21-4.7,0-15.28,12.71-20.56,22.25l-.52-.15c2.8-7.78,8.37-17.55,9.41-17.55.21-.15.36-.43.36-.66,0-1.4-2.42-3.68-4.63-3.68-3.68,0-13.45,22.77-13.45,28.28,0,3.17,3.39,4.93,5.22,4.93ZM399.71,36.33c0-1.02-1.33-1.9-2.06-1.9-3.68,5.2-7.26,7.71-10.58,8.87,2.58-4.98,4.27-10.2,4.27-13.59,0-4.91-3.53-8.58-7.35-8.58-2.49,0-4.92,1.61-6.98,3.89-5.36,1.92-13.59,13.96-13.59,21.68,0,6.67,6.09,9.82,9.63,9.82,3.82,0,7.85-3.66,11.17-8.44,4.4-.95,10.35-4.32,15.49-11.74ZM385.53,28.17c0,3.89-2.71,10.65-5.95,16.02-4.54-.36-6.24-2.78-6.24-5.86v-.23c1.92-4.1,4.7-7.64,7.78-8.14.52.22.73-.23.73-.97,0-.87-.36-2.11-1.17-3.08.88-.5,1.76-.81,2.56-.81,1.61,0,2.28,1.19,2.28,3.08ZM372.02,52.48c-1.11,0-1.63-1.23-1.63-3.22,0-1.61.37-3.68.97-5.95,1.31,2.14,3.75,3.53,6.1,4.34-2.06,2.87-4.05,4.84-5.44,4.84ZM426.43,36.33c0-1.02-1.33-1.9-2.06-1.9-3.68,5.2-7.26,7.71-10.58,8.87,2.58-4.98,4.27-10.2,4.27-13.59,0-4.91-3.53-8.58-7.35-8.58-2.49,0-4.91,1.61-6.97,3.89-5.36,1.92-13.59,13.96-13.59,21.68,0,6.67,6.1,9.82,9.63,9.82,3.82,0,7.85-3.66,11.17-8.44,4.39-.95,10.34-4.32,15.49-11.74ZM412.25,28.17c0,3.89-2.71,10.65-5.95,16.02-4.54-.36-6.24-2.78-6.24-5.86v-.23c1.92-4.1,4.7-7.64,7.78-8.14.52.22.73-.23.73-.97,0-.87-.36-2.11-1.16-3.08.88-.5,1.76-.81,2.56-.81,1.61,0,2.28,1.19,2.28,3.08ZM398.75,52.48c-1.11,0-1.63-1.23-1.63-3.22,0-1.61.37-3.68.96-5.95,1.31,2.14,3.75,3.53,6.1,4.34-2.06,2.87-4.05,4.84-5.43,4.84ZM457.19,36.33c0-1.02-1.33-1.9-2.06-1.9-3.74,5.93-8.21,10.42-12.77,13.95,1.38-4.03,2.56-8.23,3.66-12.27.09-.14.16-.45.16-.66,0-1.54-2.28-3.68-5.07-3.68-3.6,0-14.16,18.01-16.53,18.01-.43,0-.81-.31-.81-1.47,0-5.59,8.09-22.1,16.01-22.1,2.28,0,3.89.87,3.82,4.18,1.92-.29,2.72-1.54,2.72-3.01,0-2.71-4.7-6.24-8.66-6.24-8.89,0-21.3,17.03-21.3,27.04,0,3.08,3.44,7.26,7.05,7.26,4.7,0,11.74-13.59,15.06-17.55l.5.07c-1.61,5.66-3.74,11.6-6.09,16.6-9.18,5.22-16.82,7.57-16.82,11.74,0,2.87,3.46,5.43,7.64,5.43,7.28,0,12.64-7.85,16.68-17.91,5.74-3.89,11.83-9.32,16.82-17.48ZM422.82,67.47c-.88,0-1.97-.45-1.97-1.61,0-2.28,4.39-3.89,10.42-6.91-2.78,5.06-6.09,8.52-8.44,8.52ZM454.18,56.51c4.7,0,10.2-13.5,13.43-17.54l.59.15c-.81,2.11-1.76,4.91-1.76,8.14,0,4.62,2.94,6.61,4.77,6.61,3.09,0,8.97-5.58,16.16-17.55,0-1.02-1.31-1.9-2.04-1.9-6.1,8.95-9.34,12.33-11.62,12.33-.73,0-1.02-.52-1.02-1.47,0-2.94,2.94-9.04,3.74-9.18.15-.14.22-.38.22-.66,0-1.54-2.78-3.68-5.44-3.68-3.6,0-13.5,18.01-15.86,18.01-.43,0-.81-.31-.81-1.47,0-5.59,8.09-22.1,16.01-22.1,2.28,0,3.89.87,3.82,4.18,1.92-.29,2.73-1.54,2.73-3.01,0-2.71-4.7-6.24-8.66-6.24-8.9,0-21.3,17.03-21.3,27.04,0,4.25,3.44,8.35,7.05,8.35Z"></path><path class="cls-7" d="M179.34,58.59c10.5,0,21.75-10.88,29.31-22.25,0-1.04-1.33-1.92-2.06-1.92-7.56,10.73-17.54,18.21-26.88,18.21-5.15,0-7.33-2.42-7.33-6.83,0-14.17,17.17-34.5,25.92-34.5,1.92,0,3.08,1.08,3.08,3.15,0,4.42-5.58,11.75-9.48,13.96,1.04.67,2.21.96,3.46.96,5.58,0,11.96-6.4,11.96-12.65s-6.31-9.83-11.67-9.83c-13.23,0-30.69,22.1-30.69,36.94,0,8.81,6.6,14.77,14.38,14.77Z"></path><path class="cls-7" d="M202.99,56.09c.67,0,1.19-.15,1.19-.58,4.54-11.98,17.02-27.19,20.04-27.19.21,0,.38.15.38.38,0,2.06-8.17,11.67-8.17,18.06,0,4.19,3.17,7.71,6.25,7.71,4.19,0,11.52-6.46,19.02-18.13,0-1.04-1.33-1.92-2.06-1.92-5.79,8.44-11.9,13.88-14.31,13.88-.73,0-1.1-.44-1.1-1.4,0-3.81,6.4-14.69,8.73-17.83.38-.23.52-.67.52-1.19,0-2.06-2.5-5.21-6.69-5.21-4.4,0-13.79,10.79-19.31,19.9l-.44-.21c4.56-12.35,15.13-30.48,17.19-30.48.29-.15.44-.52.44-.81,0-1.4-2.56-3.52-4.71-3.52-3.81,0-22.17,34.88-22.17,43.63,0,3.15,3.38,4.92,5.21,4.92Z"></path><path class="cls-7" d="M238.68,56.53c4.71,0,10.21-13.52,13.44-17.56l.58.15c-.79,2.15-1.75,4.94-1.75,8.17,0,4.63,2.94,6.6,4.77,6.6,3.08,0,8.96-5.58,16.15-17.54,0-1.04-1.31-1.92-2.04-1.92-6.1,8.96-9.33,12.33-11.6,12.33-.75,0-1.04-.52-1.04-1.46,0-2.94,2.94-9.04,3.75-9.19.15-.15.23-.38.23-.67,0-1.54-2.79-3.67-5.44-3.67-3.6,0-13.52,18-15.88,18-.44,0-.79-.29-.79-1.48,0-5.58,8.06-22.1,16-22.1,2.27,0,3.9.88,3.81,4.19,1.92-.29,2.73-1.54,2.73-3.02,0-2.71-4.71-6.23-8.67-6.23-8.9,0-21.29,17.04-21.29,27.02,0,4.27,3.44,8.38,7.04,8.38Z"></path><path class="cls-7" d="M288.75,34.42c-5.65,8.23-13.15,15.79-17.54,15.79-.96,0-1.4-.73-1.4-1.98,0-4.33,4.04-13,8.44-20.42,3.46-.15,6.98-.23,8.96-.23.23-.23.38-.67.38-1.17,0-1.33-.88-3.08-3.75-3.08-.73,0-1.75,0-2.85.06,2.79-4.33,5.35-7.56,6.67-8.38.31-.15.38-.29.38-.58,0-1.17-2.27-3.6-4.77-3.6-1.63,0-5.96,5.73-10.21,12.94-2.56.06-4.71.21-5.65.29-.38.52-.52,1.02-.52,1.54,0,1.25.96,2.42,2.5,2.42h1.17c-4.33,7.85-8,16.38-8,20.79,0,3.96,3.08,7.04,6.54,7.04,7.71,0,18.27-14.02,21.73-19.52,0-.96-1.17-1.92-2.06-1.92Z"></path><path class="cls-7" d="M307.69,34.42c-5.65,8.23-13.15,15.79-17.54,15.79-.96,0-1.4-.73-1.4-1.98,0-4.33,4.04-13,8.44-20.42,3.46-.15,6.98-.23,8.96-.23.23-.23.38-.67.38-1.17,0-1.33-.88-3.08-3.75-3.08-.73,0-1.75,0-2.85.06,2.79-4.33,5.35-7.56,6.67-8.38.31-.15.38-.29.38-.58,0-1.17-2.27-3.6-4.77-3.6-1.63,0-5.96,5.73-10.21,12.94-2.56.06-4.71.21-5.65.29-.38.52-.52,1.02-.52,1.54,0,1.25.96,2.42,2.5,2.42h1.17c-4.33,7.85-8,16.38-8,20.79,0,3.96,3.08,7.04,6.54,7.04,7.71,0,18.27-14.02,21.73-19.52,0-.96-1.17-1.92-2.06-1.92Z"></path><path class="cls-7" d="M306.74,56.53c4.71,0,10.21-13.52,13.44-17.56l.58.15c-.79,2.15-1.75,4.94-1.75,8.17,0,4.63,2.94,6.6,4.77,6.6,3.08,0,8.96-5.58,16.15-17.54,0-1.04-1.31-1.92-2.04-1.92-6.1,8.96-9.33,12.33-11.6,12.33-.75,0-1.04-.52-1.04-1.46,0-2.94,2.94-9.04,3.75-9.19.15-.15.23-.38.23-.67,0-1.54-2.79-3.67-5.44-3.67-3.6,0-13.52,18-15.88,18-.44,0-.79-.29-.79-1.48,0-5.58,8.06-22.1,16-22.1,2.27,0,3.9.88,3.81,4.19,1.92-.29,2.73-1.54,2.73-3.02,0-2.71-4.71-6.23-8.67-6.23-8.9,0-21.29,17.04-21.29,27.02,0,4.27,3.44,8.38,7.04,8.38Z"></path><path class="cls-7" d="M334.12,56.09c.73,0,1.19-.15,1.25-.58,4.48-11.98,17.25-27.19,20.27-27.19.29,0,.44.15.44.38,0,1.98-8.29,11.6-8.29,18.06,0,4.19,3.23,7.71,6.31,7.71,4.19,0,11.52-6.46,18.88-18.13,0-1.04-1.33-1.92-2.06-1.92-5.65,8.38-11.75,13.88-14.17,13.88-.73,0-1.1-.44-1.1-1.4,0-3.81,6.4-14.69,8.81-17.83.38-.23.44-.67.44-1.19,0-2.06-2.42-5.21-6.6-5.21-4.71,0-15.27,12.71-20.56,22.25l-.52-.15c2.79-7.79,8.38-17.56,9.4-17.56.23-.15.38-.44.38-.65,0-1.4-2.42-3.69-4.63-3.69-3.67,0-13.44,22.77-13.44,28.29,0,3.15,3.38,4.92,5.21,4.92Z"></path><path class="cls-7" d="M399.71,36.34c0-1.04-1.33-1.92-2.06-1.92-3.67,5.21-7.27,7.71-10.58,8.88,2.58-4.98,4.27-10.21,4.27-13.58,0-4.92-3.52-8.58-7.35-8.58-2.48,0-4.92,1.6-6.98,3.9-5.35,1.9-13.58,13.94-13.58,21.67,0,6.67,6.1,9.83,9.63,9.83,3.81,0,7.85-3.67,11.17-8.44,4.4-.96,10.35-4.33,15.5-11.75ZM385.52,28.17c0,3.9-2.71,10.65-5.94,16.02-4.56-.38-6.25-2.79-6.25-5.88v-.23c1.92-4.1,4.71-7.63,7.79-8.15.52.21.73-.23.73-.96,0-.88-.35-2.13-1.17-3.08.88-.52,1.75-.81,2.56-.81,1.63,0,2.27,1.19,2.27,3.08ZM372.02,52.48c-1.1,0-1.63-1.25-1.63-3.23,0-1.63.38-3.67.96-5.96,1.33,2.15,3.75,3.54,6.1,4.33-2.06,2.88-4.04,4.85-5.44,4.85Z"></path><path class="cls-7" d="M426.43,36.34c0-1.04-1.33-1.92-2.06-1.92-3.67,5.21-7.27,7.71-10.58,8.88,2.58-4.98,4.27-10.21,4.27-13.58,0-4.92-3.52-8.58-7.35-8.58-2.48,0-4.92,1.6-6.98,3.9-5.35,1.9-13.58,13.94-13.58,21.67,0,6.67,6.1,9.83,9.63,9.83,3.81,0,7.85-3.67,11.17-8.44,4.4-.96,10.35-4.33,15.5-11.75ZM412.24,28.17c0,3.9-2.71,10.65-5.94,16.02-4.56-.38-6.25-2.79-6.25-5.88v-.23c1.92-4.1,4.71-7.63,7.79-8.15.52.21.73-.23.73-.96,0-.88-.35-2.13-1.17-3.08.88-.52,1.75-.81,2.56-.81,1.63,0,2.27,1.19,2.27,3.08ZM398.74,52.48c-1.1,0-1.63-1.25-1.63-3.23,0-1.63.38-3.67.96-5.96,1.33,2.15,3.75,3.54,6.1,4.33-2.06,2.88-4.04,4.85-5.44,4.85Z"></path><path class="cls-7" d="M457.2,36.34c0-1.04-1.33-1.92-2.06-1.92-3.75,5.94-8.23,10.42-12.77,13.96,1.4-4.04,2.56-8.23,3.67-12.27.06-.15.15-.44.15-.67,0-1.54-2.27-3.67-5.06-3.67-3.6,0-14.19,18-16.54,18-.44,0-.79-.29-.79-1.48,0-5.58,8.06-22.1,16-22.1,2.27,0,3.9.88,3.81,4.19,1.92-.29,2.73-1.54,2.73-3.02,0-2.71-4.71-6.23-8.67-6.23-8.9,0-21.29,17.04-21.29,27.02,0,3.08,3.44,7.27,7.04,7.27,4.71,0,11.75-13.58,15.06-17.54l.5.06c-1.6,5.67-3.73,11.6-6.08,16.6-9.19,5.21-16.81,7.56-16.81,11.75,0,2.85,3.44,5.44,7.63,5.44,7.27,0,12.63-7.88,16.67-17.94,5.73-3.88,11.83-9.31,16.83-17.46ZM422.82,67.46c-.88,0-1.98-.44-1.98-1.6,0-2.29,4.4-3.9,10.42-6.92-2.79,5.06-6.08,8.52-8.44,8.52Z"></path><path class="cls-7" d="M454.17,56.53c4.71,0,10.21-13.52,13.44-17.56l.58.15c-.79,2.15-1.75,4.94-1.75,8.17,0,4.63,2.94,6.6,4.77,6.6,3.08,0,8.96-5.58,16.15-17.54,0-1.04-1.31-1.92-2.04-1.92-6.1,8.96-9.33,12.33-11.6,12.33-.75,0-1.04-.52-1.04-1.46,0-2.94,2.94-9.04,3.75-9.19.15-.15.23-.38.23-.67,0-1.54-2.79-3.67-5.44-3.67-3.6,0-13.52,18-15.88,18-.44,0-.79-.29-.79-1.48,0-5.58,8.06-22.1,16-22.1,2.27,0,3.9.88,3.81,4.19,1.92-.29,2.73-1.54,2.73-3.02,0-2.71-4.71-6.23-8.67-6.23-8.9,0-21.29,17.04-21.29,27.02,0,4.27,3.44,8.38,7.04,8.38Z"></path><path class="cls-3" d="M163.03,30.59c-.04-.42-.62-.72-.92-.69-1.29,2.28-2.64,3.45-3.95,4.06.84-2.14,1.32-4.34,1.18-5.72-.21-2-1.8-3.35-3.36-3.2-1.02.1-1.94.86-2.68,1.88-2.11,1.01-4.96,6.27-4.64,9.41.28,2.72,2.9,3.76,4.33,3.61,1.56-.16,3.05-1.82,4.21-3.91,1.75-.57,4.04-2.2,5.83-5.44ZM156.9,27.85c.16,1.59-.66,4.46-1.76,6.78-1.86.04-2.66-.87-2.79-2.13v-.1c.6-1.76,1.59-3.31,2.83-3.65.22.07.29-.13.26-.42-.04-.36-.23-.85-.6-1.21.33-.24.68-.4,1.01-.43.66-.07.98.39,1.06,1.16ZM152.41,38.33c-.45.05-.72-.44-.8-1.25-.06-.66,0-1.52.15-2.47.62.82,1.67,1.29,2.67,1.52-.72,1.26-1.45,2.15-2.02,2.2ZM166.63,19.69c-.87.09-3.08,3.97-4.91,8.58-.71.1-1.31.19-1.61.22-.12.23-.13.44-.11.65.06.54.46.93,1.06.9-1.4,3.8-2.41,7.85-2.15,10.39.22,2.1,1.74,3.73,3.33,3.57,2.7-.28,4.16-7.33,3.71-11.77-.11-1.1-.37-2.08-.71-2.8.54-.08,1.11-.14,1.61-.19.66-.07,1.26-.13,1.66-.11.05-.09.12-.29.1-.49-.06-.57-.49-1.22-1.66-1.1-.54.05-1.34.17-2.21.29,1.19-2.91,2.57-5.38,3.91-6.55.11-.1.16-.19.15-.34-.06-.6-1.17-1.33-2.15-1.23ZM164.47,31.13c.39,3.74-1,10.61-2.29,10.74-.27.03-.42-.23-.48-.77-.26-2.55.78-7.26,2.34-11.51.03,0,.06,0,.09-.04.17.44.28.97.34,1.57Z"></path><path class="cls-7" d="M163.03,30.58c-.04-.42-.63-.71-.94-.69-1.27,2.27-2.63,3.46-3.94,4.08.85-2.17,1.31-4.35,1.19-5.75-.21-2-1.81-3.35-3.38-3.19-1.02.1-1.92.88-2.69,1.9-2.08.98-4.94,6.25-4.6,9.4.27,2.73,2.88,3.77,4.31,3.63,1.54-.17,3.06-1.83,4.21-3.92,1.75-.58,4.06-2.21,5.83-5.46ZM156.91,27.87c.15,1.58-.67,4.46-1.75,6.77-1.88.04-2.67-.9-2.79-2.15l-.02-.08c.6-1.77,1.58-3.31,2.83-3.67.23.06.31-.13.27-.4-.04-.38-.25-.85-.63-1.23.35-.23.69-.4,1.02-.44.67-.06.98.4,1.06,1.19ZM152.41,38.35c-.46.04-.71-.46-.79-1.27-.06-.65-.02-1.5.15-2.46.63.81,1.69,1.27,2.67,1.52-.73,1.23-1.46,2.15-2.02,2.21Z"></path><path class="cls-7" d="M166.64,19.67c-.88.08-3.08,3.98-4.92,8.58-.73.1-1.33.19-1.63.23-.13.23-.15.44-.13.67.06.54.48.92,1.06.88-1.38,3.81-2.4,7.85-2.13,10.4.21,2.1,1.75,3.73,3.33,3.56,2.71-.27,4.15-7.33,3.69-11.77-.1-1.1-.35-2.06-.71-2.79.54-.08,1.1-.15,1.63-.19.67-.08,1.25-.15,1.65-.13.04-.08.13-.27.1-.48-.06-.58-.5-1.23-1.65-1.13-.54.06-1.35.19-2.23.29,1.21-2.9,2.56-5.35,3.9-6.52.13-.13.19-.21.17-.35-.06-.6-1.17-1.35-2.15-1.25ZM164.45,31.15c.4,3.73-1,10.58-2.29,10.71-.27.04-.42-.23-.48-.77-.25-2.54.79-7.23,2.35-11.5.04,0,.06,0,.06-.02.19.44.29.98.35,1.58Z"></path></g></svg>